# xmcd CD database file
#
# Track frame offsets:
#	150
#	23657
#	45773
#	57682
#	72978
#	92389
#	132841
#	147391
#	173368
#	185924
#	215804
#	228533
#	261463
#	278337
#	289862
#
# Disc length: 4350 seconds
#
# Revision: 0
# Processed by: cddbd v1.5.2PL0 Copyright (c) Steve Scherf et al.
# Submitted via: CDex 1.70beta2
#
DISCID=df10fc0f
DTITLE=Various Artist - Les Trésors Du Jazz 1954 (5)
DYEAR=2006
DGENRE=Jazz
TTITLE0=Miles Davis, Oleo
TTITLE1=Miles Davis, Doxy
TTITLE2=Lennie Niehaus, I Remember You
TTITLE3=Lennie Niehaus, Whose Blues
TTITLE4=Clifford Brown, Daahoud
TTITLE5=Louis Armstrong, St. Louis Blues
TTITLE6=Bob Enevoldsen, Fast Buck
TTITLE7=Zoot Sims, Howdy Podner
TTITLE8=Sal Salvador, Round Trip
TTITLE9=Lionel Hampton, Stardust
TTITLE10=Erroll Garner, Misty
TTITLE11=Erroll Garner, 7-11 Jump
TTITLE12=Bob Cooper, Excursion
TTITLE13=Jack Sheldon, Get Out Of Town
TTITLE14=Clifford Brown - Max Roach, Delilah
EXTD=YEAR: 2006
EXTT0=
EXTT1=
EXTT2=
EXTT3=
EXTT4=
EXTT5=
EXTT6=
EXTT7=
EXTT8=
EXTT9=
EXTT10=
EXTT11=
EXTT12=
EXTT13=
EXTT14=
PLAYORDER=
